HIERARCHY
ROOT hip
{
  OFFSET 0.0 0.0 0.0
  CHANNELS 6 Xposition Yposition Zposition Zrotation Yrotation Xrotation
  JOINT torso
  {
    OFFSET 0.0 0.0 0.0
    CHANNELS 3 Zrotation Xrotation Yrotation
    JOINT neck
    {
      OFFSET -31.42098999999993 328.8025209999999 74.3554680000002
      CHANNELS 3 Zrotation Xrotation Yrotation
      JOINT head
      {
        OFFSET 3.3519900000001144 303.81732099999994 206.53942900000015
        CHANNELS 3 Zrotation Xrotation Yrotation
        End Site
        {
          OFFSET 0.0 0.0 0.0
        }
      }
    }
    JOINT left_collar
    {
      OFFSET -31.42098999999993 328.8025209999999 74.3554680000002
      CHANNELS 3 Zrotation Xrotation Yrotation
      JOINT left_upper_arm
      {
        OFFSET -124.490479 -8.162841999999841 8.226441000000023
        CHANNELS 3 Zrotation Xrotation Yrotation
        JOINT left_forearm
        {
          OFFSET -253.595764 -1.5758060000000569 105.0729980000001
          CHANNELS 3 Zrotation Xrotation Yrotation
          JOINT left_hand
          {
            OFFSET -269.48803699999996 0.1478270000000066 -55.346191999999974
            CHANNELS 3 Zrotation Xrotation Yrotation
            End Site
            {
              OFFSET 0.0 0.0 0.0
            }
          }
        }
      }
    }
    JOINT right_collar
    {
      OFFSET -31.42098999999993 328.8025209999999 74.3554680000002
      CHANNELS 3 Zrotation Xrotation Yrotation
      JOINT right_upper_arm
      {
        OFFSET 162.02484099999998 0.46441600000002836 2.2303470000001653
        CHANNELS 3 Zrotation Xrotation Yrotation
        JOINT right_forearm
        {
          OFFSET 240.01246700000004 -25.835875999999985 121.34179699999959
          CHANNELS 3 Zrotation Xrotation Yrotation
          JOINT right_hand
          {
            OFFSET 252.48539699999992 18.910399999999868 -67.53466800000001
            CHANNELS 3 Zrotation Xrotation Yrotation
            End Site
            {
              OFFSET 0.0 0.0 0.0
            }
          }
        }
      }
    }
  }
}
MOTION
Frames: 13
Frame Time: 0.01
-163.476851410226 246.81665862533055 786.1555310987831 16.231641955965696 -17.34382377276739 -47.12476681505423 -0.9417929069429304 6.18807011775113 0.7627056058880253 -10.7544794771543 1.4495321903873983 7.240378928742169 0.0 0.0 0.0 -2.7763413017757816 -0.011856537768933442 -4.150674603762684 33.06096204019067 20.227844876907042 -16.6274976104678 -0.5649295380168724 0.026947837668322348 -16.01195703244036 0.0 0.0 0.0 -7.835791761379365 0.3893009723721225 4.28243182574187 -53.261666563750126 32.37081565782554 3.1945082652794046 -57.38588963975253 -5.484396121124319 22.50400297166075 0.0 0.0 0.0
-163.48038599710057 246.82365677288934 786.2309436783904 16.31706794620813 -17.43226233335892 -47.139318936093545 -1.0063803839691001 6.276304376274779 0.7818127699810863 -10.740801299536683 1.4496011559491468 7.231106024628021 0.0 0.0 0.0 -2.7839603112322613 -0.01105617971458525 -4.188906194708551 33.06088149382497 20.223352434768607 -16.61633497215357 -0.5677157261773742 0.027145820113003177 -16.0078322848946 0.0 0.0 0.0 -7.843371081417593 0.3870197908700557 4.241870370268258 -53.2722109150493 32.37448345865437 3.1895571177463466 -57.39105036145436 -5.479199132732947 22.516163856823628 0.0 0.0 0.0
-163.48617126247885 246.8288233997717 786.3108181315654 16.394478621475088 -17.5135896842906 -47.1524208823438 -1.0642557780329787 6.357022106056262 0.799000487698243 -10.728399165637647 1.4493850697982238 7.222715704235951 0.0 0.0 0.0 -2.7891046397100574 -0.01017339479134609 -4.223077104023535 33.05631075337226 20.21799922514605 -16.61013364164478 -0.5696710822768148 0.02730546797510198 -16.00120844339317 0.0 0.0 0.0 -7.850422338945116 0.38491027220210017 4.2044003048900125 -53.28241113996808 32.377699263016865 3.184324532211386 -57.39592695952005 -5.4736458134629284 22.529049152254295 0.0 0.0 0.0
-163.4943455889942 246.83216007452017 786.3951850484733 16.463121072202625 -17.587051796387083 -47.16393058318512 -1.114888511199577 6.4294560506053795 0.814134414332129 -10.717374617446904 1.4488754388418954 7.215277220065331 0.0 0.0 0.0 -2.7919925460644177 -0.009234773062769598 -4.253022823927504 33.04794997105802 20.211987953417204 -16.608291871112954 -0.5708348989001758 0.027427580912068553 -15.992386287945779 0.0 0.0 0.0 -7.856921322241899 0.382995612273531 4.170375511237907 -53.2919713963222 32.380368657261194 3.178960808593466 -57.40071109678147 -5.467824379193044 22.542499037619244 0.0 0.0 0.0
-163.50500140406433 246.83373319631315 786.4840147497132 16.5225013269125 -17.652124383821615 -47.173761380848134 -1.1579575193572718 6.493085889484979 0.8271375318103439 -10.707789468635202 1.4480727196451477 7.2088323582583165 0.0 0.0 0.0 -2.7928917426991435 -0.008267674707200719 -4.278701834406978 33.0365648029441 20.205526801252788 -16.6101197428097 -0.5712608648914416 0.027513517956331123 -15.98171226760272 0.0 0.0 0.0 -7.862863742004815 0.38129300422082507 4.140043590529401 -53.30060578945169 32.38240925026432 3.1736228953538137 -57.40559346492529 -5.461822691523178 22.55635415001152 0.0 0.0 0.0
-163.51818487446852 246.8336694403101 786.5772229413967 16.572383452299547 -17.7085103577398 -47.18188606228207 -1.1933479314135556 6.547637116324558 0.8379877731005536 -10.699666569606755 1.4469849410106068 7.203396047678855 0.0 0.0 0.0 -2.79210846801451 -0.007299458633128846 -4.300186550086294 33.022962497682485 20.198823956157693 -16.614862108828465 -0.5710147140599284 0.027565154924666723 -15.969565733493983 0.0 0.0 0.0 -7.868261671203837 0.3798136052923541 4.11354913852588 -53.30804759498098 32.38375164414679 3.1684670743013275 -57.41075751038265 -5.455723708224353 22.57046440979535 0.0 0.0 0.0
-163.53389704237648 246.8321493550988 786.674677832622 16.612780243183835 -17.75613004471626 -47.18833833350859 -1.2211414566586483 6.593071746615189 0.8467143173645805 -10.692991892625663 1.4456258232024495 7.198957892196154 0.0 0.0 0.0 -2.7899757413026376 -0.006356707504292713 -4.3176506749761705 33.00796752125383 20.192082355666983 -16.621722978732905 -0.5701714897401808 0.027584823889115945 -15.956345321857723 0.0 0.0 0.0 -7.873139488561991 0.37856272169439853 4.090940356811461 -53.31405820570992 32.3843401827144 3.163641621329314 -57.416373269847675 -5.449601332509631 22.58469701823682 0.0 0.0 0.0
-163.55209633950278 246.82939943372037 786.7762082352774 16.643936508489197 -17.7951052662783 -47.19321169338048 -1.2416013254189018 6.629571920740292 0.853392834547725 -10.687717775077859 1.4440125595797664 7.195484506304553 0.0 0.0 0.0 -2.78684118929474 -0.005464478330910723 -4.3313537784404605 32.99239739626336 20.185494718390448 -16.6298905761548 -0.5688125392159242 0.027575234523659498 -15.94245501524968 0.0 0.0 0.0 -7.877529695740355 0.3775401855853731 4.072178347646135 -53.31843534977146 32.384133517649296 3.159279916668046 -57.42259148205982 -5.44351692300239 22.59894308297067 0.0 0.0 0.0
-163.5727023817671 246.82568301136791 786.88161212474 16.666306163441167 -17.82573849792047 -47.19665580111668 -1.2551527328957353 6.657517659937588 0.8581399345795944 -10.683767123019063 1.442163440924293 7.192922509271715 0.0 0.0 0.0 -2.7830548436535945 -0.0046456077149650025 -4.341623957564405 32.97703941089275 20.17923894278478 -16.638562296236472 -0.5670223784410833 0.027539379732071913 -15.92829039372256 0.0 0.0 0.0 -7.8814689650584695 0.37674089123704296 4.057148375658668 -53.32102014989907 32.38310501801035 3.1554944358513604 -57.42953814970723 -5.437516681587593 22.613122423474493 0.0 0.0 0.0
-163.59560091582523 246.82129035864364 786.9906651512389 16.680524457023456 -17.84848837059991 -47.198870542890084 -1.2623597864749658 6.677460131669925 0.861107046679841 -10.681038349892654 1.4400955075259256 7.19120201440691 0.0 0.0 0.0 -2.7789573168367583 -0.003920099335240509 -4.34883945903261 32.962628830059636 20.17347397092463 -16.646968820423933 -0.5648855742655404 0.027480429769457155 -15.914225558029885 0.0 0.0 0.0 -7.88499472708417 0.37615545254535177 4.045672360089042 -53.32170264429152 32.38124302996841 3.1523719793950984 -57.43730973431423 -5.431630073898229 22.62718624491142 0.0 0.0 0.0
-163.62064975942707 246.81652834006934 787.1031286434434 16.68737670738785 -17.86394276085295 -47.2000980826225 -1.2638999652546716 6.69009180033218 0.8624739253332543 -10.679410805389224 1.4378224104647421 7.190240436818513 0.0 0.0 0.0 -2.7748687682511326 -0.0033046182989759964 -4.353410111777943 32.94982921956717 20.168336232411338 -16.654396674501694 -0.5624837771144763 0.027401619767199296 -15.90060116864811 0.0 0.0 0.0 -7.888142530342846 0.375770941374614 4.037521880970837 -53.32042547221088 32.37855097250552 3.149970393679906 -57.44596917098339 -5.425869362550404 22.641117531904957 0.0 0.0 0.0
-163.64768555139565 246.81170999255573 787.2187567237036 16.687764896161656 -17.872790649986687 -47.20061323205626 -1.2605370772292004 6.696214792570329 0.862441955330401 -10.678750435608586 1.4353526516989032 7.189946434339242 0.0 0.0 0.0 -2.7710790632274676 -0.0028121121240172907 -4.355759377461017 32.93921546179748 20.16393679411504 -16.66020855137898 -0.5598930133929695 0.027306135671541592 -15.88771399876659 0.0 0.0 0.0 -7.890944305038316 0.37557166534082703 4.032431035759735 -53.317185542101136 32.37504723592666 3.148316904202253 -57.455542883608985 -5.420230254303132 22.654929185793375 0.0 0.0 0.0
-163.67653110578735 246.807144349609 787.3373022450714 16.68267339577792 -17.875793827585774 -47.20071250138119 -1.2530936519003122 6.696708705906556 0.8612274102163398 -10.678915408519801 1.4326883526925538 7.190223792529883 0.0 0.0 0.0 -2.7678394912214226 -0.0024515711190717525 -4.3563077560660135 32.93125998233713 20.16035933786483 -16.663860775637314 -0.5571813276173345 0.027197003838912895 -15.875808341778837 0.0 0.0 0.0 -7.893427548434249 0.3755399442641251 4.030108562461231 -53.312033637488206 32.37076483994512 3.1474080421934643 -57.46601896273311 -5.414693587520243 22.668660090598888 0.0 0.0 0.0
